<svg width="21" height="19" viewBox="0 0 21 19" fill="none" xmlns="http://www.w3.org/2000/svg">
<path d="M14.5171 0C12.7771 0 11.1071 0.81 10.0171 2.09C8.92709 0.81 7.25709 0 5.51709 0C2.43709 0 0.0170898 2.42 0.0170898 5.5C0.0170898 9.28 3.41709 12.36 8.56709 17.04L10.0171 18.35L11.4671 17.03C16.6171 12.36 20.0171 9.28 20.0171 5.5C20.0171 2.42 17.5971 0 14.5171 0ZM10.1171 15.55L10.0171 15.65L9.91709 15.55C5.15709 11.24 2.01709 8.39 2.01709 5.5C2.01709 3.5 3.51709 2 5.51709 2C7.05709 2 8.55709 2.99 9.08709 4.36H10.9571C11.4771 2.99 12.9771 2 14.5171 2C16.5171 2 18.0171 3.5 18.0171 5.5C18.0171 8.39 14.8771 11.24 10.1171 15.55Z" fill="black"/>
</svg>
